<?xml version="1.0" encoding="utf-8"?>
<!-- Generator: Adobe Illustrator 22.1.0, SVG Export Plug-In . SVG Version: 6.00 Build 0)  -->
<svg version="1.1" id="Layer_1" xmlns="http://www.w3.org/2000/svg" xmlns:xlink="http://www.w3.org/1999/xlink" x="0px" y="0px"
	 viewBox="0 0 1423.9 268.7" style="enable-background:new 0 0 1423.9 268.7;" xml:space="preserve">
<style type="text/css">
	.st0{fill:#FFFFFF;}
	.st1{fill:#184771;}
	.st2{fill:#2971BA;}
</style>
<g>
	<path class="st0" d="M1,35c0,0,13.2-0.2,29.5-2.7c13.1-2,29-6.1,35.9-8.2c6.4-2,15.3-4.3,25.7-9.3c12.5-6,26-14.7,26-14.7
		s11.7,8.2,26.2,14.8c12.1,5.5,26.8,9.4,33.5,11.3c7.3,2.2,20.8,5.2,33.2,6.8c12.7,1.7,24.2,1.8,24.2,1.8s2.8,25.4-2.5,60.6
		c-3,23.7-10.8,52.2-16.4,64.2c-6.8,14.3-16.4,41.4-41,66.2c-27.2,29.9-57.1,42.7-57.1,42.7s-15.2-6.8-33.5-20.8
		c-6.1-4.7-13.7-11.9-19.7-17.6c-17.9-17.1-30.6-40.3-37-52.4C20.6,163.5,8.8,130.6,4.3,102C-1.5,66.1,1,35,1,35z"/>
	<path class="st1" d="M937.2,124.8c2.4,0,2.4,0,2.4,2.5c0,15,0,30.1,0,45.1c0,1.4-0.3,2.5-1.3,3.5c-12.7,13.3-28.1,20.8-46.4,22.4
		c-14.7,1.3-28.8-1-41.9-8c-18.4-9.8-29.4-25.1-33.1-45.6c-2.1-11.7-1.5-23.3,2.1-34.7c4.8-14.9,13.8-26.7,27.3-34.6
		c19.6-11.4,40.3-13.7,61.8-6.2c12.3,4.3,21.7,12.6,28.9,23.3c1,1.4,0.9,1.5-0.6,2.3c-6.5,3.6-13.1,7.1-19.5,10.7
		c-1.3,0.7-1.9,0.6-2.7-0.6c-5.9-7.9-13.5-13.1-23.3-14.8c-17.9-3.1-37.3,5.9-44.1,26c-4.8,14.3-3.7,28.2,4.8,40.9
		c7.2,10.9,17.8,16.3,30.7,17c9.9,0.6,19-2.1,27.2-7.7c1.8-1.2,2.8-2.6,2.6-4.9c-0.3-3.1,0-6.3-0.1-9.4c0-3.6,0.5-3.1-3.3-3.1
		c-9.1,0-18.2,0-27.3,0c-0.4,0-0.9,0-1.3,0c-2.2,0-2.2,0-2.2-2.1c0-6.6,0-13.3,0-19.9c0-2,0-2,2-2
		C882.6,124.7,927.8,124.7,937.2,124.8z"/>
	<path class="st2" d="M440.6,152c0-1.2,0-47.3,0-69.5c0-3.5-0.3-3.1,3.1-3.1c6.4,0,12.8,0,19.2,0c2.9,0,2.6-0.2,2.6,2.7
		c0,27,0,100.8,0,110.7c0,0.4,0,0.9,0,1.3c-0.1,1.9-0.1,1.9-2.1,2c-0.3,0-0.5,0-0.8,0c-6.2,0-12.4-0.1-18.6,0c-1.9,0-3-0.6-4.1-2.1
		c-16.1-22.1-51.8-70.9-53.6-73.4c-0.7,0.9-0.4,1.8-0.4,2.6c0,23,0,46,0,69c0,0.5,0,1,0,1.6c0,2.3,0,2.3-2.3,2.3
		c-6.8,0-13.6,0-20.5,0c-2,0-2,0-2.1-2c0-1.9,0-76.3,0-111.5c0-3.6-0.4-3.2,3.2-3.2c6.6,0,13.1,0.1,19.7,0c1.9,0,3.1,0.5,4.3,2.1
		c16.6,22.7,33.4,45.4,50.1,68C438.8,150.3,439.3,151.3,440.6,152z"/>
	<path class="st1" d="M1342.7,196.2c-8.4,0-16.8,0-25.2,0c-2.3,0-2.3,0-2.3-2.3c0-37.4,0-74.9,0-112.3c0-2.2,0-2.2,2.1-2.2
		c15.7,0,31.5-0.1,47.2,0.1c10.5,0.1,20.6,2.6,29.9,7.6c15.2,8.2,24.3,21,27.7,37.8c2.3,11.4,1.7,22.8-2.2,33.9
		c-6.1,17.3-18.4,28.3-35.6,34c-7.1,2.3-14.4,3.4-21.9,3.4C1355.8,196.2,1349.3,196.2,1342.7,196.2z M1340.2,172.5
		c0,1.3,0.2,1.9,1.7,1.9c8.1-0.2,16.3,0.5,24.4-0.4c12.9-1.4,22.7-7.8,28.1-19.8c4.9-10.8,4.7-21.9,0.3-32.8
		c-3.5-8.6-9.9-14.4-18.7-17.6c-4.5-1.6-9.1-2.3-13.9-2.3c-6.5,0-12.9,0-19.4,0c-0.4,0-0.9,0-1.3,0c-0.7,0-1.1,0.3-1.1,1.1
		C1340.2,103.1,1340.2,168.2,1340.2,172.5z"/>
	<path class="st2" d="M657.1,152.2c8.6,14.5,17.2,29,25.9,43.6c-0.7,0.7-1.5,0.5-2.1,0.5c-8,0-16.1,0-24.1,0.1
		c-1.8,0-2.6-0.6-3.5-2.1c-6.8-12.4-13.7-24.8-20.5-37.2c-0.9-1.7-2-2.3-3.9-2.3c-4.5,0.1-8.9,0-13.4,0.1c-2.1,0-2.1,0-2.1,2.2
		c0,11.9,0,23.8,0,35.7c0,0.6,0,1.2,0,1.8c0.1,1.2-0.3,1.7-1.6,1.7c-7.3,0-14.5,0-21.8,0c-1.3,0-1.7-0.6-1.6-1.7c0-0.5,0-75,0-111.8
		c0-3.7-0.3-3.3,3.2-3.3c17,0,33.9,0,50.9,0c6.7,0,13.3,0.9,19.4,3.8c12,5.6,18.5,15.2,20.3,28.2c0.9,6.9,0.3,13.6-2.2,20.1
		c-3.8,9.6-10.6,16-20.4,19.4C658.8,151.3,657.9,151.3,657.1,152.2z M613.4,117c0,4.5,0,8.9,0,13.4c0,2.4,0,2.4,2.4,2.4
		c7.5,0,15,0,22.6,0c1.7,0,3.3-0.1,5-0.3c7.7-1.1,13.1-6.9,13.6-14.4c0.5-7.9-4-14-11.8-16.1c-1.4-0.4-2.7-0.6-4.1-0.6
		c-8.6,0-17.1,0-25.7,0c-1.8,0-1.8,0.1-1.9,1.9C613.4,107.9,613.4,112.5,613.4,117z"/>
	<path class="st1" d="M1271.1,151.9c8.8,14.8,17.4,29.3,26,43.8c-0.6,0.7-1.2,0.5-1.8,0.5c-8.2,0-16.4,0-24.7,0.1
		c-1.6,0-2.5-0.6-3.2-2c-6.8-12.4-13.7-24.8-20.5-37.2c-1-1.8-2-2.5-4.1-2.4c-4.3,0.2-8.6,0.1-12.9,0c-2.8,0-2.6,0-2.6,2.5
		c0,11.6,0,23.3,0,34.9c0,4,0,4-3.9,4c-6.2,0-12.4,0-18.6,0c-2.4,0-2.3,0.1-2.3-2.3c0-5.8,0-79.4,0-110.4c0-0.6,0-1.2,0-1.8
		c0-2.4-0.1-2.2,2.3-2.2c17.5,0,35,0,52.5,0c2.5,0,5.1,0.2,7.6,0.5c17.1,2.4,29.1,14.4,31.3,31.5c0.8,6.3,0.4,12.6-1.7,18.6
		c-3.6,10.3-10.6,17.3-20.9,20.9C1273.1,151.2,1272.3,151.5,1271.1,151.9z M1227.6,130.4c0,2.3,0,2.3,2.3,2.3c8,0,16.1,0,24.1,0
		c1.1,0,2.3-0.1,3.4-0.2c7.7-1,13.3-6.8,13.7-14.3c0.5-8.1-4-14.2-11.9-16.2c-1.4-0.4-2.7-0.6-4.1-0.6c-8.6,0-17.1,0-25.7,0
		c-1.8,0-1.8,0.1-1.8,2C1227.5,108,1227.5,126,1227.6,130.4z"/>
	<path class="st1" d="M1070.8,195.9c0.9-2.3,30.1-78.1,43.8-113.8c0.2-0.4,0.4-0.8,0.5-1.2c0.3-1.1,0.9-1.5,2.1-1.5
		c9.4,0,18.9,0.1,28.3,0c1.4,0,1.7,0.8,2.1,1.8c3.3,8.6,32.1,83.2,43.1,112c0.3,0.9,0.8,1.7,0.9,2.7c-0.6,0.5-1.3,0.3-2,0.3
		c-7.9,0-15.7,0-23.6,0c-2.5,0-2.3,0.3-3.2-2.1c-1.9-5.2-3.9-10.5-5.8-15.7c-0.5-1.4-1.2-1.8-2.6-1.8c-15.4,0.1-30.8,0.1-46.2,0
		c-1.5,0-2.1,0.4-2.6,1.8c-1.9,5.4-4,10.8-6,16.2c-0.4,1.1-0.9,1.7-2.2,1.7c-8.6-0.1-17.1,0-25.7-0.1
		C1071.5,196.2,1071.3,196.1,1070.8,195.9z M1131.3,104.4c-6.2,17-12.1,33.4-18.1,49.9c12.2,0,24.1,0,36.2,0
		C1143.4,137.8,1137.4,121.4,1131.3,104.4z"/>
	<path class="st2" d="M809.7,195.9c-0.7,0.5-1.4,0.3-2.1,0.3c-7.9,0-15.7,0-23.6,0c-2.2,0-2.2,0-3-2c-1.9-5.2-3.8-10.3-5.7-15.5
		c-0.8-2.1-0.8-2.1-2.9-2.1c-15.3,0-30.6,0-45.9,0c-1.6,0-2.3,0.6-2.8,2c-1.9,5.3-3.9,10.6-5.9,16c-0.4,1.2-1.1,1.7-2.5,1.7
		c-8.4-0.1-16.8,0-25.2,0c-0.3,0-0.5-0.1-0.9-0.1c-0.2-1,0.4-1.8,0.7-2.6c10.9-28.4,39.5-102.6,42.9-111.2c1.2-3.1,0.6-2.7,3.8-2.7
		c8.6,0,17.1,0,25.7,0c3.4,0,2.7-0.2,3.7,2.5c6.8,17.6,35.4,91.8,42.8,111.2C809.2,194.1,809.7,194.9,809.7,195.9z M749.7,105.2
		c-0.2,0-0.3,0-0.5,0c-5.9,16.4-11.9,32.7-17.8,49.2c12.2,0,24,0,36.2,0C761.5,137.8,755.6,121.5,749.7,105.2z"/>
	<path class="st1" d="M1065.7,149.4c0,5.7-0.6,11.3-2.3,16.8c-4.1,13.8-12.8,23.4-26.3,28.2c-15.8,5.6-32,5.6-47.9,0.2
		c-15.4-5.3-24.5-16.5-27.9-32.4c-1-4.5-1.2-9-1.2-13.6c0-22.2,0-44.4,0-66.6c0-0.3,0-0.5,0-0.8c-0.2-1.3,0.3-2,1.7-1.8
		c0.8,0.1,1.6,0,2.4,0c6.4,0,12.8,0,19.2,0c2,0,2,0,2.1,2c0,1.8,0,46.8,0,67.4c0,3.6,0.4,7.1,1.6,10.6c2.6,7.9,7.9,13.1,15.9,15.4
		c6.5,1.9,13.2,2,19.7,0.1c9.7-2.8,15.1-9.6,17-19.4c0.5-2.5,0.6-5,0.6-7.6c0-21.9,0-43.7,0-65.6c0-3.2-0.4-2.9,3-2.9
		c6.4,0,12.8,0,19.2,0c3.9,0,3.4-0.5,3.4,3.3C1065.7,94.8,1065.7,139.2,1065.7,149.4z"/>
	<path class="st2" d="M488.5,82.4c0-3.2-0.3-2.9,3-2.9c25.6,0,51.3,0,76.9,0c3.1,0,2.9-0.2,2.9,2.8c0,5.3,0,10.7,0,16
		c0,3.5,0.2,3.2-3.1,3.2c-15.7,0-51,0-53,0c-1.1,0-1.8,0.2-1.8,1.6c0,7.1,0,14.2,0,21.3c0,1.1,0.4,1.6,1.5,1.5c0.6,0,52.9,0,53.5,0
		c1-0.1,1.4,0.3,1.4,1.4c0,6.5,0,12.9,0,19.4c0,0.9-0.3,1.3-1.2,1.2c-0.7,0-53.1,0-53.8,0c-1-0.1-1.5,0.4-1.4,1.4c0,0.7,0,1.4,0,2.1
		c0,13.8,0,27.6,0,41.5c0,0.5,0,1.1,0,1.6c-0.1,1.9-0.1,1.9-1.9,1.9c-3.5,0-17.5,0-21,0c-2,0-2-0.1-2-2.1
		C488.5,187.6,488.5,100.8,488.5,82.4z"/>
	<path class="st2" d="M336.7,192.4c0,0.6,0,1.2,0,1.8c-0.1,2-0.1,2-2.1,2c-7.7,0-15.4,0-23.1,0c-2.4,0-2.4,0-2.4-2.4
		c0-14.9,0-97.2,0-123.6c0-3.6-0.3-3.2,3.3-3.2c7.3,0,14.5,0,21.8,0c2.6,0,2.6,0,2.6,2.6C336.7,90.3,336.7,172.2,336.7,192.4z"/>
	<g>
		<path class="st1" d="M178.2,183.2c-4.1,0-8.2,0-12.3,0c-1.4,0-2.2-0.3-2.8-1.7c-4.4-10.7-16.9-14.3-26-9.2c-1.2,0.7-2,0.5-3-0.3
			c-12.8-9.6-25.6-19.2-38.4-28.8c-1.1-0.8-1.4-1.4-0.9-2.8c1.5-4.7,1.1-9.3-1.1-13.8c-0.6-1.1-0.5-1.8,0.4-2.7
			c4.9-5.1,9.7-10.3,14.5-15.5c0.9-1,1.6-0.9,2.7-0.6c9.7,3.2,19.1-1,23.3-10.2c0.6-1.3,1.2-1.8,2.7-1.8c27.5,0,54.9,0,82.4,0
			c2.1,0,2.1,0,1.8,2.2c-4.6,29.1-13.2,56.8-27.4,82.6c-1,1.8-2.1,2.6-4.3,2.5C185.9,183.1,182.1,183.2,178.2,183.2z"/>
		<path class="st1" d="M85.9,28.7c3.2-1.3,6.3-2.6,9.3-3.9c7.4-3.2,14.6-6.7,21.4-11c1.1-0.7,1.9-0.7,3,0
			c20.6,12.3,43,20.1,66.3,25.3c11.7,2.6,23.5,4.3,35.5,5.4c4.2,0.4,3.5-0.5,3.5,3.9c0.2,11.6-0.4,23.2-1.6,34.8
			c-0.1,1.3-0.5,1.9-1.9,1.8c-0.4,0-0.9,0-1.3,0c-27.4,0-54.7,0-82.1,0c-2,0-3-0.5-3.9-2.5c-3.9-8.7-13.4-12.8-22.5-9.9
			c-1.7,0.5-2.6,0.3-3.8-1c-6.1-6.7-12.3-13.4-18.5-20c-0.7-0.8-1.4-1.4-0.8-2.7c3.2-7,2.3-13.6-2.3-19.7
			C86.2,29.2,86.2,29.1,85.9,28.7z"/>
		<path class="st2" d="M53.2,38.7c0.2,2.3,0,4.5,0.5,6.6c2.6,10.8,13.6,17,24.2,13.4c1.6-0.6,2.6-0.5,3.8,0.9
			c6,6.6,12.1,13.1,18.2,19.6c1.1,1.2,1.4,2,0.7,3.6c-2.4,5.1-2.3,10.3,0,15.5c0.6,1.3,0.6,2.1-0.4,3.2c-4.8,5-9.6,10.2-14.3,15.3
			c-0.9,1-1.7,1-3,0.6c-9.6-3-18.8,1.2-23,10.4c-0.5,1.2-1.1,1.7-2.5,1.7c-11.2-0.1-22.4,0-33.6,0c-2,0-2,0-2.5-2.1
			c-2.6-9.5-4.6-19.2-6.2-28.9c-2.6-16.8-4-33.7-3.7-50.7c0-0.4,0-0.9,0-1.3c-0.1-1.3,0.5-1.6,1.7-1.7c4.1-0.4,8.2-0.9,12.2-1.3
			c9-1,18-2.6,26.8-4.7C52.4,38.7,52.7,38.7,53.2,38.7z"/>
		<path class="st2" d="M25.3,140.9c1-0.6,1.8-0.4,2.6-0.4c9.6,0,19.2,0,28.9,0c1.7,0,2.6,0.4,3.3,2.1c4.3,9.9,15.6,13.9,25.3,9.2
			c1.4-0.7,2.4-0.7,3.7,0.3c12.7,9.6,25.4,19.2,38.1,28.7c1,0.8,1.4,1.4,1,2.8c-1.8,6-0.7,11.6,3.1,16.6c0.7,0.9,0.9,1.5,0,2.4
			c-5.9,6.1-11.7,12.3-17.5,18.4c-0.7,0.8-1.4,1.1-2.5,0.7c-10.5-3.7-21.1,2.3-24.1,12c-0.1,0.2-0.2,0.5-0.4,1
			C56.7,209.4,37.4,177.5,25.3,140.9z"/>
		<path class="st1" d="M115.7,254.1c3.3-2.6,5.7-5.7,6.8-9.6c1.4-4.6,1.2-9.2-1-13.5c-0.7-1.5-0.5-2.3,0.6-3.4
			c6.1-6.3,12.1-12.6,18.1-19c1.2-1.2,2.3-1.8,4.1-1.6c6,0.6,11.2-1.5,15.3-5.8c1.6-1.7,2.8-3.6,3.6-5.7c0.4-1.1,0.9-1.5,2.1-1.5
			c6.6,0.1,13.3,0,19.9,0c0.4,0.8-0.2,1.2-0.5,1.7c-16.8,25-38.4,44.6-64.8,59.1C118.3,255.8,117.2,255.4,115.7,254.1z"/>
		<path class="st1" d="M153.6,188.8c-0.1,4.2-3.6,7.6-7.8,7.5c-4.1-0.1-7.4-3.5-7.4-7.6c0-4.2,3.5-7.7,7.7-7.7
			C150.3,181.1,153.6,184.5,153.6,188.8z"/>
		<path class="st1" d="M117.5,98c-4.3,0-7.6-3.3-7.6-7.6c0-4.2,3.5-7.7,7.7-7.6c4,0.1,7.5,3.5,7.6,7.6C125.2,94.5,121.7,98,117.5,98
			z"/>
		<path class="st1" d="M64.3,41.1c0-4.4,3.3-7.7,8-7.6c4.1,0.1,7.2,3.5,7.3,7.5c0.1,4.1-3.4,7.7-7.6,7.7
			C67.6,48.7,64.3,45.4,64.3,41.1z"/>
		<path class="st2" d="M112.5,239.1c-0.1,4.2-3.6,7.6-7.8,7.5c-4-0.1-7.5-3.6-7.5-7.6c0-4.2,3.5-7.7,7.7-7.7
			C109,231.4,112.6,235,112.5,239.1z"/>
		<path class="st2" d="M77.1,142.6c-4.4,0-7.5-3.2-7.6-7.6c-0.1-4.1,3.4-7.7,7.6-7.7c4,0,7.5,3.6,7.6,7.5
			C84.8,139,81.3,142.6,77.1,142.6z"/>
	</g>
</g>
</svg>
